# xmcd CD database file
#
# Track frame offsets:
#	150
#	4190
#	29310
#	49062
#	72347
#	92227
#	117100
#	135885
#	157197
#	181342
#	198907
#
# Disc length: 2929 seconds
#
# Revision: 0
# Processed by: cddbd v1.5.1PL0 Copyright (c) Steve Scherf et al.
# Submitted via: CDex 1.51
#
DISCID=8d0b6f0b
DTITLE=Planet Earth - Big Bang
DYEAR=1900
DGENRE=Rock
TTITLE0=Big Bang
TTITLE1=War Machine
TTITLE2=君を愛してしまった
TTITLE3=Dear My Friend
TTITLE4=Ｐ・Ｏ・Ｎ・Ｙ
TTITLE5=たった独りで
TTITLE6=Boogie Boy
TTITLE7=Hold Me Now
TTITLE8=あたしらしく　女らしく
TTITLE9=Never Stop Rock'n'roll
TTITLE10=It's My Soul
EXTD=
EXTT0=
EXTT1=
EXTT2=
EXTT3=
EXTT4=
EXTT5=
EXTT6=
EXTT7=
EXTT8=
EXTT9=
EXTT10=
PLAYORDER=
